<svg xmlns="http://www.w3.org/2000/svg" viewBox="0 0 64 64">
  <rect width="64" height="64" rx="16" fill="#0c0a09"/>
  <path
    d="M20 21.5c0-5.2 4.4-9 11.2-9 4.4 0 8.1 1.4 10.8 4.1l-4.4 5.2a9.2 9.2 0 0 0-6.5-2.5c-2.6 0-4.1.9-4.1 2.5 0 1.8 1.9 2.4 6.4 3.5 6.8 1.6 10.6 4.2 10.6 10.5 0 7.1-5.8 11.7-14.2 11.7-5.8 0-10.7-2-14-5.7l4.6-5.4a12.5 12.5 0 0 0 9 3.9c3.3 0 5.2-1.2 5.2-3.2 0-1.8-1.5-2.6-6-3.7C22.8 32 20 29 20 21.5Z"
    fill="#f5f5f4"
  />
  <circle cx="48" cy="48" r="6" fill="#0f766e"/>
</svg>
